<svg width="616" height="616" xmlns="http://www.w3.org/2000/svg" xmlns:xlink="http://www.w3.org/1999/xlink" xml:space="preserve" overflow="hidden"><defs><clipPath id="clip0"><rect x="197" y="-8" width="616" height="616"/></clipPath></defs><g clip-path="url(#clip0)" transform="translate(-197 8)"><path d="M766.229 205.64C770.892 205.64 774.692 201.84 774.692 197.176 774.692 192.513 770.892 188.713 766.229 188.713L711.291 188.713 711.291 150.477 766.229 150.477C770.892 150.477 774.692 146.733 774.692 142.069 774.692 137.345 770.892 133.606 766.229 133.606L711.291 133.606 711.291 110.056C711.291 87.7706 693.15 69.6313 670.922 69.6313L647.544 69.6313 647.544 14.8578C647.544 10.1943 643.745 6.39437 639.08 6.39437 634.417 6.39437 630.617 10.1943 630.617 14.8578L630.617 69.6231 592.381 69.6231 592.377 14.8578C592.377 10.1943 588.577 6.39437 583.914 6.39437 579.25 6.39437 575.45 10.1943 575.45 14.8578L575.45 69.6231 537.214 69.6231 537.209 14.8578C537.209 10.1943 533.41 6.39437 528.747 6.39437 524.082 6.39437 520.283 10.1943 520.283 14.8578L520.283 69.6231 482.046 69.6231 482.042 14.8578C482.042 10.1943 478.243 6.39437 473.579 6.39437 468.916 6.39437 465.115 10.1943 465.115 14.8578L465.115 69.6231 426.879 69.6231 426.879 14.8578C426.879 10.1943 423.079 6.39437 418.416 6.39437 413.753 6.39437 409.952 10.1943 409.952 14.8578L409.952 69.6231 371.716 69.6231 371.712 14.8578C371.712 10.1943 367.912 6.39437 363.249 6.39437 358.585 6.39437 354.841 10.1943 354.841 14.8578L354.841 69.6231 331.114 69.6231C308.829 69.6231 290.749 87.7634 290.749 110.048L290.749 133.598 236.097 133.598C231.434 133.598 227.634 137.341 227.634 142.061 227.634 146.724 231.434 150.468 236.097 150.468L290.746 150.468 290.746 188.705 236.097 188.709C231.434 188.709 227.634 192.509 227.634 197.172 227.634 201.836 231.434 205.636 236.097 205.636L290.746 205.636 290.746 243.872 236.097 243.876C231.434 243.876 227.634 247.676 227.634 252.339 227.634 257.004 231.434 260.803 236.097 260.803L290.746 260.803 290.746 299.04 236.097 299.044C231.434 299.044 227.634 302.843 227.634 307.507 227.634 312.17 231.434 315.971 236.097 315.971L290.746 315.971 290.746 354.207 236.097 354.207C231.434 354.207 227.634 358.007 227.634 362.67 227.634 367.333 231.434 371.134 236.097 371.134L290.746 371.134 290.746 409.37 236.097 409.374C231.434 409.374 227.634 413.174 227.634 417.837 227.634 422.501 231.434 426.301 236.097 426.301L290.746 426.301 290.746 449.8C290.746 472.085 308.826 490.225 331.111 490.225L354.838 490.225 354.838 544.99C354.838 549.653 358.582 553.453 363.246 553.453 367.909 553.453 371.708 549.653 371.708 544.99L371.708 490.225 409.945 490.225 409.945 544.99C409.945 549.653 413.745 553.453 418.409 553.453 423.072 553.453 426.872 549.653 426.872 544.99L426.872 490.225 465.108 490.225 465.108 544.99C465.108 549.653 468.909 553.453 473.572 553.453 478.235 553.453 482.035 549.653 482.035 544.99L482.035 490.225 520.271 490.225 520.271 544.99C520.271 549.653 524.072 553.453 528.735 553.453 533.399 553.453 537.198 549.653 537.198 544.99L537.198 490.225 575.435 490.225 575.435 544.99C575.435 549.653 579.235 553.453 583.899 553.453 588.562 553.453 592.361 549.653 592.361 544.99L592.361 490.225 630.598 490.225 630.598 544.99C630.598 549.653 634.398 553.453 639.062 553.453 643.725 553.453 647.525 549.653 647.525 544.99L647.525 490.225 670.902 490.225C693.131 490.225 711.271 472.084 711.271 449.8L711.271 426.305 766.209 426.305C770.874 426.305 774.673 422.505 774.673 417.841 774.673 413.178 770.874 409.378 766.209 409.378L711.271 409.378 711.271 371.142 766.209 371.142C770.874 371.142 774.673 367.341 774.673 362.678 774.673 358.015 770.874 354.215 766.209 354.215L711.271 354.215 711.271 315.979 766.209 315.979C770.874 315.979 774.673 312.178 774.673 307.515 774.673 302.851 770.874 299.052 766.209 299.052L711.271 299.052 711.271 260.816 766.209 260.816C770.874 260.816 774.673 257.015 774.673 252.352 774.673 247.688 770.874 243.889 766.209 243.889L711.271 243.889 711.271 205.652ZM647.203 417.665C647.203 422.329 643.403 426.133 638.739 426.133L363.248 426.128C358.583 426.128 354.84 422.329 354.84 417.661L354.84 142.179C354.84 137.516 358.583 133.716 363.248 133.716L638.73 133.716C643.393 133.716 647.193 137.516 647.193 142.179Z" fill="#FFFFFF"/><path d="M371.711 150.646 630.267 150.646 630.267 409.203 371.711 409.203Z" fill="#FFFFFF"/><path d="M232.536 653.069C231.54 653.584 230.499 653.969 229.419 654.226 228.347 654.491 227.222 654.628 226.045 654.628 222.55 654.628 219.783 653.656 217.738 651.704 215.69 649.744 214.669 647.092 214.669 643.75 214.669 640.4 215.69 637.749 217.738 635.797 219.783 633.837 222.55 632.857 226.045 632.857 227.222 632.857 228.347 632.993 229.419 633.258 230.5 633.515 231.54 633.901 232.536 634.415L232.536 638.753C231.528 638.079 230.536 637.581 229.564 637.259 228.588 636.938 227.559 636.777 226.479 636.777 224.551 636.777 223.032 637.4 221.932 638.641 220.827 639.874 220.277 641.577 220.277 643.75 220.277 645.916 220.827 647.619 221.932 648.86 223.032 650.093 224.551 650.708 226.479 650.708 227.559 650.708 228.588 650.555 229.564 650.242 230.536 649.92 231.528 649.418 232.536 648.731Z" fill="#FFFFFF"/><path d="M248.494 642.77C248.044 642.569 247.598 642.417 247.16 642.32 246.731 642.216 246.297 642.159 245.859 642.159 244.562 642.159 243.565 642.577 242.871 643.413 242.172 644.24 241.826 645.421 241.826 646.964L241.826 654.226 236.797 654.226 236.797 638.48 241.826 638.48 241.826 641.067C242.469 640.039 243.208 639.292 244.043 638.818 244.887 638.336 245.895 638.095 247.064 638.095 247.233 638.095 247.418 638.107 247.61 638.127 247.811 638.139 248.1 638.167 248.478 638.207Z" fill="#FFFFFF"/><path d="M266.711 646.305 266.711 647.751 254.933 647.751C255.062 648.932 255.488 649.816 256.219 650.402 256.946 650.993 257.97 651.286 259.288 651.286 260.348 651.286 261.429 651.133 262.533 650.82 263.646 650.499 264.787 650.025 265.956 649.39L265.956 653.262C264.767 653.712 263.578 654.049 262.389 654.274 261.2 654.507 260.011 654.628 258.822 654.628 255.97 654.628 253.752 653.905 252.17 652.459 250.595 651.013 249.808 648.984 249.808 646.369 249.808 643.799 250.583 641.782 252.138 640.312 253.688 638.834 255.821 638.095 258.532 638.095 261.007 638.095 262.987 638.846 264.477 640.344 265.963 641.834 266.711 643.823 266.711 646.305ZM261.537 644.634C261.537 643.682 261.256 642.915 260.702 642.337 260.143 641.75 259.416 641.453 258.516 641.453 257.54 641.453 256.749 641.726 256.138 642.272 255.528 642.819 255.146 643.606 254.998 644.634Z" fill="#FFFFFF"/><path d="M277.576 647.141C276.524 647.141 275.733 647.317 275.199 647.671 274.672 648.024 274.411 648.551 274.411 649.245 274.411 649.888 274.624 650.394 275.054 650.756 275.48 651.109 276.07 651.286 276.821 651.286 277.773 651.286 278.573 650.949 279.215 650.274 279.866 649.591 280.195 648.739 280.195 647.719L280.195 647.141ZM285.257 645.245 285.257 654.226 280.195 654.226 280.195 651.897C279.521 652.853 278.757 653.547 277.914 653.985 277.066 654.411 276.038 654.628 274.829 654.628 273.198 654.628 271.877 654.158 270.86 653.214 269.84 652.262 269.334 651.025 269.334 649.502 269.334 647.663 269.965 646.313 271.23 645.453 272.503 644.586 274.5 644.152 277.223 644.152L280.195 644.152 280.195 643.75C280.195 642.959 279.878 642.381 279.247 642.015 278.613 641.642 277.633 641.453 276.307 641.453 275.223 641.453 274.218 641.561 273.286 641.774 272.363 641.991 271.507 642.312 270.716 642.738L270.716 638.898C271.784 638.641 272.861 638.444 273.945 638.304 275.038 638.167 276.13 638.095 277.223 638.095 280.059 638.095 282.107 638.657 283.361 639.782 284.622 640.898 285.257 642.718 285.257 645.245Z" fill="#FFFFFF"/><path d="M295.447 634.014 295.447 638.481 300.636 638.481 300.636 642.08 295.447 642.08 295.447 648.764C295.447 649.495 295.591 649.985 295.88 650.242 296.17 650.499 296.74 650.628 297.6 650.628L300.186 650.628 300.186 654.227 295.88 654.227C293.888 654.227 292.474 653.817 291.639 652.989 290.811 652.154 290.402 650.748 290.402 648.764L290.402 642.08 287.911 642.08 287.911 638.481 290.402 638.481 290.402 634.014Z" fill="#FFFFFF"/><path d="M319.432 646.305 319.432 647.751 307.655 647.751C307.783 648.932 308.209 649.816 308.94 650.402 309.667 650.993 310.691 651.286 312.009 651.286 313.069 651.286 314.15 651.133 315.254 650.82 316.367 650.499 317.508 650.025 318.677 649.39L318.677 653.262C317.488 653.712 316.299 654.049 315.11 654.274 313.921 654.507 312.732 654.628 311.543 654.628 308.691 654.628 306.473 653.905 304.891 652.459 303.316 651.013 302.529 648.984 302.529 646.369 302.529 643.799 303.304 641.782 304.859 640.312 306.409 638.834 308.542 638.095 311.253 638.095 313.728 638.095 315.708 638.846 317.198 640.344 318.684 641.834 319.432 643.823 319.432 646.305ZM314.258 644.634C314.258 643.682 313.977 642.915 313.423 642.337 312.864 641.75 312.137 641.453 311.237 641.453 310.261 641.453 309.47 641.726 308.859 642.272 308.249 642.819 307.867 643.606 307.719 644.634Z" fill="#FFFFFF"/><path d="M333.944 640.778 333.944 632.343 339.005 632.343 339.005 654.226 333.944 654.226 333.944 651.945C333.257 652.876 332.498 653.559 331.662 653.985 330.827 654.411 329.855 654.628 328.754 654.628 326.814 654.628 325.224 653.857 323.982 652.314 322.737 650.772 322.119 648.791 322.119 646.369 322.119 643.939 322.737 641.951 323.982 640.408 325.224 638.866 326.814 638.095 328.754 638.095 329.847 638.095 330.811 638.316 331.646 638.753 332.49 639.195 333.257 639.87 333.944 640.778ZM330.634 650.981C331.703 650.981 332.522 650.591 333.092 649.808 333.659 649.017 333.944 647.872 333.944 646.37 333.944 644.871 333.659 643.73 333.092 642.947 332.522 642.156 331.703 641.758 330.634 641.758 329.562 641.758 328.742 642.156 328.176 642.947 327.606 643.73 327.324 644.871 327.324 646.37 327.324 647.872 327.606 649.017 328.176 649.808 328.742 650.591 329.562 650.981 330.634 650.981Z" fill="#FFFFFF"/><path d="M362.25 650.981C363.331 650.981 364.154 650.591 364.724 649.808 365.291 649.017 365.576 647.872 365.576 646.369 365.576 644.871 365.291 643.73 364.724 642.947 364.154 642.156 363.331 641.758 362.25 641.758 361.166 641.758 360.338 642.156 359.76 642.947 359.189 643.742 358.908 644.883 358.908 646.369 358.908 647.86 359.189 649 359.76 649.792 360.338 650.587 361.166 650.981 362.25 650.981ZM358.908 640.778C359.603 639.87 360.37 639.195 361.206 638.753 362.049 638.316 363.021 638.095 364.114 638.095 366.062 638.095 367.657 638.866 368.902 640.408 370.143 641.951 370.766 643.939 370.766 646.369 370.766 648.792 370.143 650.772 368.902 652.314 367.657 653.857 366.062 654.628 364.114 654.628 363.021 654.628 362.049 654.411 361.206 653.985 360.37 653.547 359.603 652.869 358.908 651.945L358.908 654.226 353.879 654.226 353.879 632.343 358.908 632.343Z" fill="#FFFFFF"/><path d="M372.417 638.481 377.446 638.481 381.687 649.166 385.287 638.481 390.316 638.481 383.696 655.721C383.029 657.465 382.254 658.686 381.366 659.385 380.474 660.092 379.31 660.445 377.864 660.445L374.939 660.445 374.939 657.135 376.514 657.135C377.369 657.135 377.992 656.995 378.378 656.717 378.771 656.448 379.077 655.966 379.293 655.271L379.438 654.838Z" fill="#FFFFFF"/><path d="M402.495 638.481 416.232 638.481 416.232 642 407.941 650.628 416.232 650.628 416.232 654.227 402.156 654.227 402.156 650.708 410.447 642.08 402.494 642.08Z" fill="#FFFFFF"/><path d="M420.04 638.481 425.069 638.481 425.069 654.226 420.04 654.226ZM420.04 632.343 425.069 632.343 425.069 636.456 420.04 636.456Z" fill="#FFFFFF"/><path d="M437.393 641.693C436.276 641.693 435.425 642.095 434.838 642.898 434.248 643.702 433.954 644.859 433.954 646.369 433.954 647.879 434.248 649.036 434.838 649.839 435.425 650.635 436.276 651.028 437.393 651.028 438.485 651.028 439.321 650.635 439.899 649.839 440.486 649.036 440.783 647.879 440.783 646.369 440.783 644.859 440.486 643.702 439.899 642.898 439.321 642.095 438.485 641.693 437.393 641.693ZM437.393 638.094C440.1 638.094 442.217 638.829 443.739 640.295 445.258 641.754 446.021 643.778 446.021 646.369 446.021 648.952 445.258 650.976 443.739 652.442 442.217 653.9 440.1 654.627 437.393 654.627 434.67 654.627 432.545 653.9 431.014 652.442 429.48 650.976 428.717 648.952 428.717 646.369 428.717 643.778 429.48 641.753 431.014 640.295 432.545 638.829 434.67 638.094 437.393 638.094Z" fill="#FFFFFF"/><path d="M465.514 644.634 465.514 654.226 460.453 654.226 460.453 646.884C460.453 645.526 460.421 644.586 460.357 644.072 460.292 643.558 460.184 643.18 460.035 642.931 459.843 642.61 459.573 642.361 459.232 642.176 458.899 641.995 458.517 641.903 458.091 641.903 457.039 641.903 456.215 642.312 455.617 643.124 455.014 643.927 454.717 645.048 454.717 646.482L454.717 654.226 449.688 654.226 449.688 638.481 454.717 638.481 454.717 640.778C455.476 639.871 456.28 639.196 457.127 638.754 457.983 638.316 458.927 638.095 459.955 638.095 461.775 638.095 463.156 638.658 464.1 639.782 465.04 640.899 465.514 642.514 465.514 644.635Z" fill="#FFFFFF"/><path d="M226.012 661.135 226.012 664.445 223.233 664.445C222.526 664.445 222.028 664.574 221.739 664.831 221.457 665.088 221.321 665.538 221.321 666.181L221.321 667.273 225.627 667.273 225.627 670.872 221.321 670.872 221.321 683.019 216.292 683.019 216.292 670.872 213.785 670.872 213.785 667.273 216.292 667.273 216.292 666.181C216.292 664.469 216.766 663.2 217.722 662.373 218.674 661.549 220.156 661.136 222.172 661.136Z" fill="#FFFFFF"/><path d="M239.89 671.562C239.44 671.362 238.994 671.209 238.556 671.113 238.127 671.008 237.693 670.952 237.255 670.952 235.958 670.952 234.961 671.37 234.267 672.205 233.568 673.033 233.222 674.214 233.222 675.756L233.222 683.018 228.193 683.018 228.193 667.273 233.222 667.273 233.222 669.86C233.865 668.831 234.604 668.084 235.439 667.61 236.283 667.128 237.291 666.887 238.46 666.887 238.629 666.887 238.814 666.899 239.006 666.92 239.207 666.932 239.496 666.96 239.874 667Z" fill="#FFFFFF"/><path d="M249.88 670.486C248.764 670.486 247.912 670.887 247.326 671.691 246.735 672.494 246.442 673.651 246.442 675.161 246.442 676.672 246.735 677.829 247.326 678.632 247.912 679.427 248.763 679.821 249.88 679.821 250.973 679.821 251.808 679.427 252.387 678.632 252.973 677.829 253.27 676.672 253.27 675.161 253.27 673.651 252.973 672.494 252.387 671.691 251.808 670.888 250.973 670.486 249.88 670.486ZM249.88 666.887C252.588 666.887 254.704 667.622 256.227 669.088 257.745 670.546 258.508 672.57 258.508 675.161 258.508 677.744 257.745 679.769 256.227 681.235 254.704 682.693 252.588 683.42 249.88 683.42 247.157 683.42 245.032 682.693 243.502 681.235 241.967 679.768 241.204 677.744 241.204 675.161 241.204 672.57 241.967 670.546 243.502 669.088 245.032 667.622 247.157 666.887 249.88 666.887Z" fill="#FFFFFF"/><path d="M276.761 669.891C277.392 668.919 278.147 668.172 279.027 667.658 279.902 667.144 280.866 666.887 281.919 666.887 283.726 666.887 285.104 667.449 286.048 668.574 287 669.69 287.478 671.305 287.478 673.426L287.478 683.018 282.417 683.018 282.417 674.808 282.417 674.438C282.425 674.302 282.433 674.109 282.433 673.86 282.433 672.747 282.264 671.944 281.935 671.45 281.613 670.948 281.087 670.695 280.36 670.695 279.404 670.695 278.665 671.092 278.143 671.884 277.617 672.667 277.348 673.804 277.34 675.29L277.34 683.018 272.278 683.018 272.278 674.808C272.278 673.065 272.126 671.944 271.829 671.45 271.527 670.948 270.993 670.695 270.222 670.695 269.258 670.695 268.511 671.092 267.988 671.884 267.462 672.667 267.201 673.796 267.201 675.274L267.201 683.018 262.14 683.018 262.14 667.273 267.201 667.273 267.201 669.57C267.82 668.683 268.527 668.012 269.322 667.562 270.125 667.112 271.009 666.887 271.973 666.887 273.066 666.887 274.03 667.152 274.865 667.674 275.701 668.201 276.331 668.94 276.761 669.892Z" fill="#FFFFFF"/><path d="M307.694 662.806 307.694 667.273 312.883 667.273 312.883 670.872 307.694 670.872 307.694 677.556C307.694 678.287 307.838 678.777 308.128 679.034 308.417 679.291 308.987 679.42 309.847 679.42L312.434 679.42 312.434 683.019 308.128 683.019C306.135 683.019 304.721 682.609 303.886 681.782 303.058 680.946 302.649 679.541 302.649 677.556L302.649 670.872 300.158 670.872 300.158 667.273 302.649 667.273 302.649 662.806Z" fill="#FFFFFF"/><path d="M331.787 673.427 331.787 683.019 326.725 683.019 326.725 675.708C326.725 674.326 326.693 673.378 326.629 672.864 326.565 672.35 326.456 671.973 326.308 671.723 326.115 671.402 325.846 671.153 325.504 670.968 325.171 670.787 324.789 670.695 324.364 670.695 323.311 670.695 322.488 671.105 321.889 671.916 321.287 672.72 320.99 673.84 320.99 675.274L320.99 683.019 315.961 683.019 315.961 661.135 320.99 661.135 320.99 669.571C321.749 668.663 322.552 667.988 323.4 667.546 324.255 667.108 325.199 666.887 326.227 666.887 328.047 666.887 329.429 667.45 330.373 668.574 331.313 669.691 331.787 671.306 331.787 673.427Z" fill="#FFFFFF"/><path d="M352.173 675.098 352.173 676.544 340.396 676.544C340.524 677.725 340.95 678.608 341.681 679.195 342.408 679.785 343.432 680.078 344.75 680.078 345.81 680.078 346.891 679.926 347.995 679.612 349.108 679.291 350.249 678.817 351.418 678.182L351.418 682.055C350.229 682.505 349.04 682.842 347.851 683.067 346.662 683.3 345.473 683.42 344.284 683.42 341.432 683.42 339.215 682.697 337.632 681.251 336.057 679.805 335.27 677.777 335.27 675.162 335.27 672.591 336.045 670.575 337.6 669.104 339.15 667.626 341.283 666.887 343.994 666.887 346.469 666.887 348.449 667.638 349.939 669.137 351.426 670.627 352.173 672.615 352.173 675.098ZM346.999 673.427C346.999 672.475 346.718 671.707 346.164 671.129 345.605 670.543 344.878 670.245 343.979 670.245 343.002 670.245 342.211 670.518 341.601 671.065 340.99 671.611 340.608 672.398 340.46 673.427Z" fill="#FFFFFF"/><path d="M366.235 662.035 372.276 662.035 379.908 676.431 379.908 662.035 385.034 662.035 385.034 683.019 378.992 683.019 371.36 668.622 371.36 683.019 366.235 683.019Z" fill="#FFFFFF"/><path d="M397.595 670.486C396.478 670.486 395.626 670.887 395.04 671.691 394.449 672.494 394.156 673.651 394.156 675.161 394.156 676.672 394.449 677.829 395.04 678.632 395.626 679.427 396.478 679.821 397.595 679.821 398.687 679.821 399.523 679.427 400.101 678.632 400.687 677.829 400.985 676.672 400.985 675.161 400.985 673.651 400.687 672.494 400.101 671.691 399.523 670.888 398.687 670.486 397.595 670.486ZM397.595 666.887C400.302 666.887 402.419 667.622 403.941 669.088 405.459 670.546 406.223 672.57 406.223 675.161 406.223 677.744 405.459 679.769 403.941 681.235 402.419 682.693 400.302 683.42 397.595 683.42 394.871 683.42 392.746 682.693 391.216 681.235 389.681 679.768 388.918 677.744 388.918 675.161 388.918 672.57 389.681 670.546 391.216 669.088 392.746 667.622 394.871 666.887 397.595 666.887Z" fill="#FFFFFF"/><path d="M409.713 676.881 409.713 667.273 414.774 667.273 414.774 668.847C414.774 669.707 414.766 670.775 414.758 672.061 414.746 673.346 414.742 674.206 414.742 674.631 414.742 675.909 414.774 676.825 414.838 677.379 414.911 677.937 415.023 678.339 415.176 678.584 415.389 678.917 415.662 679.175 415.995 679.355 416.325 679.528 416.706 679.612 417.136 679.612 418.184 679.612 419.008 679.211 419.61 678.407 420.209 677.604 420.51 676.487 420.51 675.049L420.51 667.273 425.539 667.273 425.539 683.018 420.51 683.018 420.51 680.737C419.747 681.66 418.944 682.339 418.1 682.777 417.252 683.203 416.316 683.42 415.288 683.42 413.477 683.42 412.095 682.865 411.143 681.749 410.187 680.636 409.713 679.013 409.713 676.88Z" fill="#FFFFFF"/><path d="M446.213 673.427 446.213 683.019 441.152 683.019 441.152 675.676C441.152 674.318 441.12 673.378 441.055 672.864 440.991 672.35 440.883 671.973 440.734 671.723 440.541 671.402 440.272 671.153 439.931 670.968 439.597 670.787 439.216 670.695 438.79 670.695 437.738 670.695 436.914 671.105 436.316 671.916 435.713 672.72 435.416 673.84 435.416 675.274L435.416 683.019 430.387 683.019 430.387 667.273 435.416 667.273 435.416 669.571C436.175 668.663 436.978 667.988 437.826 667.546 438.682 667.109 439.626 666.888 440.654 666.888 442.473 666.888 443.855 667.45 444.799 668.575 445.739 669.691 446.213 671.306 446.213 673.427Z" fill="#FFFFFF"/><path d="M461.132 662.035 470.113 662.035C472.781 662.035 474.825 662.63 476.251 663.819 477.685 665 478.404 666.687 478.404 668.88 478.404 671.077 477.685 672.768 476.251 673.957 474.825 675.146 472.781 675.741 470.113 675.741L466.53 675.741 466.53 683.019 461.132 683.019ZM466.53 665.956 466.53 671.82 469.535 671.82C470.583 671.82 471.391 671.563 471.961 671.049 472.539 670.535 472.829 669.812 472.829 668.88 472.829 667.94 472.539 667.217 471.961 666.711 471.391 666.209 470.583 665.956 469.535 665.956Z" fill="#FFFFFF"/><path d="M493.708 671.562C493.258 671.362 492.812 671.209 492.375 671.113 491.945 671.008 491.511 670.952 491.073 670.952 489.776 670.952 488.78 671.37 488.085 672.205 487.386 673.033 487.04 674.214 487.04 675.756L487.04 683.018 482.011 683.018 482.011 667.273 487.04 667.273 487.04 669.86C487.683 668.831 488.422 668.084 489.258 667.61 490.101 667.128 491.109 666.887 492.278 666.887 492.447 666.887 492.632 666.899 492.825 666.92 493.025 666.932 493.315 666.96 493.692 667Z" fill="#FFFFFF"/><path d="M503.694 670.486C502.577 670.486 501.725 670.887 501.139 671.691 500.548 672.494 500.255 673.651 500.255 675.161 500.255 676.672 500.548 677.829 501.139 678.632 501.725 679.427 502.577 679.821 503.694 679.821 504.786 679.821 505.622 679.427 506.2 678.632 506.787 677.829 507.084 676.672 507.084 675.161 507.084 673.651 506.787 672.494 506.2 671.691 505.622 670.888 504.786 670.486 503.694 670.486ZM503.694 666.887C506.401 666.887 508.518 667.622 510.04 669.088 511.559 670.546 512.322 672.57 512.322 675.161 512.322 677.744 511.559 679.769 510.04 681.235 508.518 682.693 506.401 683.42 503.694 683.42 500.97 683.42 498.845 682.693 497.315 681.235 495.781 679.768 495.017 677.744 495.017 675.161 495.017 672.57 495.781 670.546 497.315 669.088 498.845 667.622 500.97 666.887 503.694 666.887Z" fill="#FFFFFF"/><path d="M515.99 667.273 521.019 667.273 521.019 682.73C521.019 684.839 520.509 686.449 519.492 687.566 518.484 688.679 517.018 689.237 515.09 689.237L512.6 689.237 512.6 685.927 513.483 685.927C514.435 685.927 515.09 685.71 515.444 685.284 515.805 684.855 515.99 684.003 515.99 682.73ZM515.99 661.136 521.019 661.136 521.019 665.249 515.99 665.249Z" fill="#FFFFFF"/><path d="M541.573 675.098 541.573 676.544 529.795 676.544C529.924 677.725 530.35 678.608 531.081 679.195 531.808 679.785 532.832 680.078 534.15 680.078 535.21 680.078 536.291 679.926 537.395 679.612 538.508 679.291 539.649 678.817 540.818 678.182L540.818 682.055C539.629 682.505 538.44 682.842 537.251 683.067 536.062 683.3 534.873 683.42 533.684 683.42 530.832 683.42 528.614 682.697 527.032 681.251 525.457 679.805 524.67 677.777 524.67 675.162 524.67 672.591 525.445 670.575 527 669.104 528.55 667.626 530.683 666.887 533.394 666.887 535.869 666.887 537.849 667.638 539.339 669.137 540.825 670.627 541.573 672.615 541.573 675.098ZM536.399 673.427C536.399 672.475 536.118 671.707 535.563 671.129 535.005 670.543 534.278 670.245 533.378 670.245 532.402 670.245 531.611 670.518 531 671.065 530.39 671.611 530.008 672.398 529.86 673.427Z" fill="#FFFFFF"/><path d="M558.097 667.771 558.097 671.868C557.422 671.398 556.736 671.049 556.041 670.824 555.354 670.599 554.643 670.487 553.904 670.487 552.498 670.487 551.401 670.9 550.61 671.724 549.827 672.539 549.437 673.684 549.437 675.162 549.437 676.632 549.827 677.777 550.61 678.601 551.401 679.416 552.498 679.822 553.904 679.822 554.683 679.822 555.43 679.709 556.137 679.484 556.844 679.251 557.495 678.902 558.097 678.44L558.097 682.553C557.314 682.842 556.515 683.055 555.703 683.196 554.9 683.344 554.085 683.421 553.261 683.421 550.421 683.421 548.2 682.694 546.593 681.236 544.995 679.781 544.199 677.757 544.199 675.162 544.199 672.559 544.995 670.531 546.593 669.073 548.2 667.619 550.421 666.888 553.261 666.888 554.085 666.888 554.9 666.964 555.703 667.113 556.507 667.253 557.302 667.474 558.097 667.771Z" fill="#FFFFFF"/><path d="M567.947 662.806 567.947 667.273 573.136 667.273 573.136 670.872 567.947 670.872 567.947 677.556C567.947 678.287 568.091 678.777 568.38 679.034 568.67 679.291 569.24 679.42 570.1 679.42L572.686 679.42 572.686 683.019 568.38 683.019C566.388 683.019 564.974 682.609 564.139 681.782 563.311 680.946 562.901 679.541 562.901 677.556L562.901 670.872 560.411 670.872 560.411 667.273 562.901 667.273 562.901 662.806Z" fill="#FFFFFF"/></g></svg>